<svg width="60" height="60" viewBox="0 0 60 60" fill="none" xmlns="http://www.w3.org/2000/svg">
<path d="M30.0098 26.4591C34.0026 26.4591 37.2394 23.2223 37.2394 19.2296C37.2394 15.2368 34.0026 12 30.0098 12C26.0171 12 22.7803 15.2368 22.7803 19.2296C22.7803 23.2223 26.0171 26.4591 30.0098 26.4591Z" fill="#0A1ED9"/>
<path d="M47.9153 43.1835C47.1653 39.7691 45.4458 36.6437 42.963 34.1827C42.3604 33.578 41.7074 33.0258 41.011 32.532C37.8397 30.1532 33.9742 28.883 30.0101 28.9172C25.1628 28.8924 20.5024 30.7851 17.0451 34.1827C14.5623 36.6437 12.8427 39.7691 12.0928 43.1835C11.9625 43.7873 11.9695 44.4126 12.1134 45.0133C12.2573 45.6139 12.5344 46.1745 12.9242 46.6537C13.3279 47.1431 13.8362 47.5358 14.4118 47.8027C14.9873 48.0696 15.6154 48.204 16.2498 48.196H43.7703C44.4066 48.1964 45.0347 48.0536 45.6083 47.7783C46.1819 47.503 46.6862 47.1022 47.0839 46.6055C47.4667 46.132 47.7397 45.5795 47.8835 44.9878C48.0273 44.3961 48.0381 43.7799 47.9153 43.1835Z" fill="#0A1ED9"/>
</svg>
